<svg width="32" height="32" viewBox="0 0 32 32" fill="none" xmlns="http://www.w3.org/2000/svg">
  <defs>
    <linearGradient id="favGradient" x1="0%" y1="0%" x2="100%" y2="100%">
      <stop offset="0%" style="stop-color:#8B5CF6"/>
      <stop offset="50%" style="stop-color:#EC4899"/>
      <stop offset="100%" style="stop-color:#F97316"/>
    </linearGradient>
  </defs>

  <!-- Rounded square background -->
  <rect width="32" height="32" rx="8" fill="url(#favGradient)"/>

  <!-- Simplified G -->
  <path d="M20 9H14C11.2386 9 9 11.2386 9 14V18C9 20.7614 11.2386 23 14 23H17V18H14C13.4477 18 13 17.5523 13 17V15C13 14.4477 13.4477 14 14 14H20V17H17V21H20C22.7614 21 25 18.7614 25 16V14C25 11.2386 22.7614 9 20 9Z" fill="white"/>

  <!-- Coin dot -->
  <circle cx="16" cy="27" r="2.5" fill="white"/>
</svg>
